<?xml version="1.0" encoding="utf-8" standalone="no"?>
<!DOCTYPE svg PUBLIC "-//W3C//DTD SVG 1.1//EN"
  "http://www.w3.org/Graphics/SVG/1.1/DTD/svg11.dtd">
<svg xmlns:xlink="http://www.w3.org/1999/xlink" width="57.6pt" height="720pt" viewBox="0 0 57.6 720" xmlns="http://www.w3.org/2000/svg" version="1.1">
 <metadata>
  <rdf:RDF xmlns:dc="http://purl.org/dc/elements/1.1/" xmlns:cc="http://creativecommons.org/ns#" xmlns:rdf="http://www.w3.org/1999/02/22-rdf-syntax-ns#">
   <cc:Work>
    <dc:type rdf:resource="http://purl.org/dc/dcmitype/StillImage"/>
    <dc:date>2024-01-04T10:32:07.242579</dc:date>
    <dc:format>image/svg+xml</dc:format>
    <dc:creator>
     <cc:Agent>
      <dc:title>Matplotlib v3.8.0, https://matplotlib.org/</dc:title>
     </cc:Agent>
    </dc:creator>
   </cc:Work>
  </rdf:RDF>
 </metadata>
 <defs>
  <style type="text/css">*{stroke-linejoin: round; stroke-linecap: butt}</style>
 </defs>
 <g id="figure_1">
  <g id="patch_1">
   <path d="M 0 720 
L 57.6 720 
L 57.6 0 
L 0 0 
z
" style="fill: #ffffff"/>
  </g>
  <g id="axes_1">
   <g id="patch_2">
    <path d="M 7.2 259.65 
L 51.84 259.65 
L 51.84 86.4 
L 7.2 86.4 
z
" style="fill: #ffffff"/>
   </g>
   <g id="patch_3">
    <path d="M 9.229091 259.65 
L 27.265455 259.65 
L 27.265455 258.181272 
L 9.229091 258.181272 
z
" clip-path="url(#p1d4a7db81d)" style="fill: #a431f6"/>
   </g>
   <g id="patch_4">
    <path d="M 31.774545 259.65 
L 49.810909 259.65 
L 49.810909 210.349258 
L 31.774545 210.349258 
z
" clip-path="url(#p1d4a7db81d)" style="fill: #a431f6"/>
   </g>
   <g id="matplotlib.axis_1"/>
   <g id="matplotlib.axis_2">
    <g id="ytick_1">
     <g id="line2d_1">
      <defs>
       <path id="ma36be30270" d="M 0 0 
L -3.5 0 
" style="stroke: #000000; stroke-width: 0.8"/>
      </defs>
      <g>
       <use xlink:href="#ma36be30270" x="7.2" y="259.65" style="stroke: #000000; stroke-width: 0.8"/>
      </g>
     </g>
     <g id="text_1">
      <!-- 0 -->
      <g transform="translate(-5.5 263.15) scale(0.1 -0.1)">
       <defs>
        <path id="Helvetica-30" d="M 672 499 
Q 301 1190 301 1888 
Q 301 1984 288 2061 
L 288 2413 
Q 288 2502 301 2592 
Q 333 3059 403 3302 
Q 506 3661 672 3981 
Q 998 4614 1824 4614 
Q 2630 4614 2970 3981 
Q 3149 3642 3251 3302 
Q 3334 3034 3347 2592 
L 3360 2240 
L 3347 1888 
Q 3334 1466 3251 1184 
Q 3155 851 2970 499 
Q 2637 -128 1824 -128 
L 1811 -128 
Q 1005 -128 672 499 
z
M 2714 1376 
Q 2771 1670 2771 1856 
L 2778 2240 
L 2771 2618 
Q 2771 2797 2714 3104 
Q 2637 3539 2458 3821 
Q 2259 4134 1824 4134 
Q 1261 4134 1065 3577 
Q 870 3021 870 2381 
L 870 2099 
Q 870 346 1824 346 
Q 2522 346 2714 1376 
z
" transform="scale(0.015625)"/>
       </defs>
       <use xlink:href="#Helvetica-30"/>
      </g>
     </g>
    </g>
    <g id="ytick_2">
     <g id="line2d_2">
      <g>
       <use xlink:href="#ma36be30270" x="7.2" y="233.281455" style="stroke: #000000; stroke-width: 0.8"/>
      </g>
     </g>
     <g id="text_2">
      <!-- 2 -->
      <g transform="translate(-5.520313 236.781455) scale(0.1 -0.1)">
       <defs>
        <path id="Helvetica-32" d="M 3341 0 
L 365 0 
Q 365 570 576 922 
Q 806 1312 1197 1587 
L 1504 1805 
L 1894 2067 
Q 2336 2349 2502 2541 
Q 2752 2835 2752 3251 
Q 2752 3661 2515 3885 
Q 2278 4109 1869 4109 
Q 1453 4109 1203 3869 
Q 954 3629 954 3219 
L 954 3053 
L 378 3053 
L 378 3187 
L 403 3469 
Q 442 3866 762 4205 
Q 1197 4659 1882 4614 
L 2157 4595 
Q 2362 4582 2611 4480 
Q 3354 4179 3354 3258 
Q 3354 2739 3098 2400 
Q 2816 2029 2176 1632 
Q 1408 1158 1158 813 
L 1069 659 
L 1018 506 
L 3341 506 
L 3341 0 
z
" transform="scale(0.015625)"/>
       </defs>
       <use xlink:href="#Helvetica-32"/>
      </g>
     </g>
    </g>
    <g id="ytick_3">
     <g id="line2d_3">
      <g>
       <use xlink:href="#ma36be30270" x="7.2" y="206.912909" style="stroke: #000000; stroke-width: 0.8"/>
      </g>
     </g>
     <g id="text_3">
      <!-- 4 -->
      <g transform="translate(-5.540625 210.412909) scale(0.1 -0.1)">
       <defs>
        <path id="Helvetica-34" d="M 160 1030 
L 160 1549 
L 2221 4480 
L 2822 4480 
L 2822 1542 
L 3507 1542 
L 3507 1030 
L 2822 1030 
L 2822 0 
L 2227 0 
L 2227 1030 
L 160 1030 
z
M 2227 1542 
L 2227 3693 
L 723 1542 
L 2227 1542 
z
" transform="scale(0.015625)"/>
       </defs>
       <use xlink:href="#Helvetica-34"/>
      </g>
     </g>
    </g>
    <g id="ytick_4">
     <g id="line2d_4">
      <g>
       <use xlink:href="#ma36be30270" x="7.2" y="180.544364" style="stroke: #000000; stroke-width: 0.8"/>
      </g>
     </g>
     <g id="text_4">
      <!-- 6 -->
      <g transform="translate(-5.490625 184.044364) scale(0.1 -0.1)">
       <defs>
        <path id="Helvetica-36" d="M 2771 3494 
Q 2586 4134 1926 4134 
Q 1811 4134 1754 4122 
Q 1670 4115 1574 4083 
Q 1107 3930 928 3181 
Q 851 2861 851 2477 
L 877 2477 
L 954 2566 
L 1075 2682 
Q 1216 2784 1417 2867 
Q 1619 2950 1946 2950 
Q 2605 2950 2982 2531 
Q 3360 2112 3360 1446 
Q 3360 698 2957 288 
Q 2522 -147 1856 -128 
L 1658 -122 
Q 1658 -122 1542 -122 
Q 1523 -115 1494 -105 
Q 1466 -96 1459 -96 
Q 282 109 282 2182 
Q 282 4045 1267 4486 
Q 1472 4576 1619 4589 
L 1933 4614 
L 2189 4595 
Q 2618 4563 2963 4211 
Q 3194 3981 3296 3494 
L 2771 3494 
z
M 915 1222 
L 973 979 
Q 1056 749 1261 547 
Q 1466 346 1882 346 
Q 2330 346 2579 685 
Q 2797 986 2797 1453 
Q 2797 1901 2553 2185 
Q 2310 2470 1869 2470 
Q 1510 2470 1257 2281 
Q 1005 2093 941 1747 
L 909 1581 
L 902 1434 
L 915 1222 
z
" transform="scale(0.015625)"/>
       </defs>
       <use xlink:href="#Helvetica-36"/>
      </g>
     </g>
    </g>
    <g id="ytick_5">
     <g id="line2d_5">
      <g>
       <use xlink:href="#ma36be30270" x="7.2" y="154.175818" style="stroke: #000000; stroke-width: 0.8"/>
      </g>
     </g>
     <g id="text_5">
      <!-- 8 -->
      <g transform="translate(-5.5 157.675818) scale(0.1 -0.1)">
       <defs>
        <path id="Helvetica-38" d="M 717 269 
Q 352 704 352 1146 
L 346 1203 
L 346 1267 
Q 346 1664 560 1993 
Q 774 2323 1146 2426 
Q 653 2592 531 3213 
L 512 3309 
L 512 3514 
Q 512 3565 525 3616 
Q 602 4115 966 4378 
Q 1306 4614 1830 4614 
Q 2477 4614 2771 4301 
Q 3098 3949 3123 3597 
L 3136 3411 
Q 3162 3078 2963 2797 
Q 2784 2541 2509 2426 
Q 2880 2330 3098 1984 
Q 3296 1670 3296 1267 
Q 3296 602 2899 237 
Q 2502 -128 1830 -128 
L 1805 -128 
Q 1050 -128 717 269 
z
M 2010 365 
Q 2214 403 2349 499 
Q 2733 774 2733 1299 
Q 2733 1715 2489 1945 
Q 2246 2176 1830 2176 
Q 1331 2176 1123 1904 
Q 915 1632 915 1299 
Q 915 557 1542 390 
L 1690 352 
L 1830 346 
L 2010 365 
z
M 2592 3392 
Q 2592 3904 2202 4064 
Q 2061 4122 1971 4122 
L 1830 4134 
Q 1478 4134 1312 3981 
Q 1120 3802 1082 3629 
L 1056 3507 
L 1050 3392 
L 1050 3341 
L 1056 3296 
Q 1056 3187 1107 3072 
Q 1165 2938 1248 2842 
Q 1414 2637 1830 2637 
Q 2189 2637 2390 2835 
Q 2592 3034 2592 3392 
z
" transform="scale(0.015625)"/>
       </defs>
       <use xlink:href="#Helvetica-38"/>
      </g>
     </g>
    </g>
    <g id="ytick_6">
     <g id="line2d_6">
      <g>
       <use xlink:href="#ma36be30270" x="7.2" y="127.807273" style="stroke: #000000; stroke-width: 0.8"/>
      </g>
     </g>
     <g id="text_6">
      <!-- 10 -->
      <g transform="translate(-11.159375 131.307273) scale(0.1 -0.1)">
       <defs>
        <path id="Helvetica-31" d="M 806 3680 
L 941 3680 
Q 1338 3680 1619 3885 
Q 1933 4102 1984 4480 
L 2400 4480 
L 2400 0 
L 1811 0 
L 1811 3366 
L 806 3366 
L 806 3680 
z
" transform="scale(0.015625)"/>
       </defs>
       <use xlink:href="#Helvetica-31"/>
       <use xlink:href="#Helvetica-30" x="56.599991"/>
      </g>
     </g>
    </g>
    <g id="ytick_7">
     <g id="line2d_7">
      <g>
       <use xlink:href="#ma36be30270" x="7.2" y="101.438727" style="stroke: #000000; stroke-width: 0.8"/>
      </g>
     </g>
     <g id="text_7">
      <!-- 12 -->
      <g transform="translate(-11.179688 104.938727) scale(0.1 -0.1)">
       <use xlink:href="#Helvetica-31"/>
       <use xlink:href="#Helvetica-32" x="56.599991"/>
      </g>
     </g>
    </g>
   </g>
   <g id="LineCollection_1">
    <path d="M 18.247273 258.366247 
L 18.247273 257.996297 
" clip-path="url(#p1d4a7db81d)" style="fill: none; stroke: #000000; stroke-width: 1.5"/>
    <path d="M 40.792727 211.114172 
L 40.792727 209.584344 
" clip-path="url(#p1d4a7db81d)" style="fill: none; stroke: #000000; stroke-width: 1.5"/>
   </g>
   <g id="patch_5">
    <path d="M 7.2 259.65 
L 7.2 86.4 
" style="fill: none; stroke: #000000; stroke-width: 0.8; stroke-linejoin: miter; stroke-linecap: square"/>
   </g>
  </g>
  <g id="axes_2">
   <g id="patch_6">
    <path d="M 7.2 450.225 
L 51.84 450.225 
L 51.84 276.975 
L 7.2 276.975 
z
" style="fill: #ffffff"/>
   </g>
   <g id="patch_7">
    <path d="M 9.229091 450.225 
L 27.265455 450.225 
L 27.265455 449.896184 
L 9.229091 449.896184 
z
" clip-path="url(#paa34f3cb52)" style="fill: #f59b00"/>
   </g>
   <g id="patch_8">
    <path d="M 31.774545 450.225 
L 49.810909 450.225 
L 49.810909 407.346053 
L 31.774545 407.346053 
z
" clip-path="url(#paa34f3cb52)" style="fill: #f59b00"/>
   </g>
   <g id="matplotlib.axis_3"/>
   <g id="matplotlib.axis_4">
    <g id="ytick_8">
     <g id="line2d_8">
      <g>
       <use xlink:href="#ma36be30270" x="7.2" y="450.225" style="stroke: #000000; stroke-width: 0.8"/>
      </g>
     </g>
     <g id="text_8">
      <!-- 0 -->
      <g transform="translate(-5.5 453.725) scale(0.1 -0.1)">
       <use xlink:href="#Helvetica-30"/>
      </g>
     </g>
    </g>
    <g id="ytick_9">
     <g id="line2d_9">
      <g>
       <use xlink:href="#ma36be30270" x="7.2" y="423.856455" style="stroke: #000000; stroke-width: 0.8"/>
      </g>
     </g>
     <g id="text_9">
      <!-- 2 -->
      <g transform="translate(-5.520313 427.356455) scale(0.1 -0.1)">
       <use xlink:href="#Helvetica-32"/>
      </g>
     </g>
    </g>
    <g id="ytick_10">
     <g id="line2d_10">
      <g>
       <use xlink:href="#ma36be30270" x="7.2" y="397.487909" style="stroke: #000000; stroke-width: 0.8"/>
      </g>
     </g>
     <g id="text_10">
      <!-- 4 -->
      <g transform="translate(-5.540625 400.987909) scale(0.1 -0.1)">
       <use xlink:href="#Helvetica-34"/>
      </g>
     </g>
    </g>
    <g id="ytick_11">
     <g id="line2d_11">
      <g>
       <use xlink:href="#ma36be30270" x="7.2" y="371.119364" style="stroke: #000000; stroke-width: 0.8"/>
      </g>
     </g>
     <g id="text_11">
      <!-- 6 -->
      <g transform="translate(-5.490625 374.619364) scale(0.1 -0.1)">
       <use xlink:href="#Helvetica-36"/>
      </g>
     </g>
    </g>
    <g id="ytick_12">
     <g id="line2d_12">
      <g>
       <use xlink:href="#ma36be30270" x="7.2" y="344.750818" style="stroke: #000000; stroke-width: 0.8"/>
      </g>
     </g>
     <g id="text_12">
      <!-- 8 -->
      <g transform="translate(-5.5 348.250818) scale(0.1 -0.1)">
       <use xlink:href="#Helvetica-38"/>
      </g>
     </g>
    </g>
    <g id="ytick_13">
     <g id="line2d_13">
      <g>
       <use xlink:href="#ma36be30270" x="7.2" y="318.382273" style="stroke: #000000; stroke-width: 0.8"/>
      </g>
     </g>
     <g id="text_13">
      <!-- 10 -->
      <g transform="translate(-11.159375 321.882273) scale(0.1 -0.1)">
       <use xlink:href="#Helvetica-31"/>
       <use xlink:href="#Helvetica-30" x="56.599991"/>
      </g>
     </g>
    </g>
    <g id="ytick_14">
     <g id="line2d_14">
      <g>
       <use xlink:href="#ma36be30270" x="7.2" y="292.013727" style="stroke: #000000; stroke-width: 0.8"/>
      </g>
     </g>
     <g id="text_14">
      <!-- 12 -->
      <g transform="translate(-11.179688 295.513727) scale(0.1 -0.1)">
       <use xlink:href="#Helvetica-31"/>
       <use xlink:href="#Helvetica-32" x="56.599991"/>
      </g>
     </g>
    </g>
    <g id="text_15">
     <!-- Observed Area of Occupancy (10,000 km²) -->
     <g transform="translate(-17.079688 461.582813) rotate(-90) scale(0.1 -0.1)">
      <defs>
       <path id="Helvetica-4f" d="M 282 2240 
Q 282 3290 794 3923 
Q 1350 4614 2374 4614 
Q 3411 4614 3962 3930 
Q 4467 3302 4467 2240 
Q 4467 1171 3962 550 
Q 3418 -128 2374 -128 
Q 1331 -128 787 550 
Q 282 1171 282 2240 
z
M 3840 2240 
Q 3840 3027 3603 3398 
Q 3213 4019 2669 4077 
L 2374 4109 
Q 2272 4109 2166 4102 
Q 2061 4096 1926 4045 
Q 1536 3936 1229 3539 
Q 864 3072 909 2240 
L 928 1882 
Q 966 1210 1421 710 
Q 1728 371 2374 371 
Q 3142 371 3520 941 
Q 3840 1427 3840 2240 
z
" transform="scale(0.015625)"/>
       <path id="Helvetica-62" d="M 998 4480 
L 998 2829 
Q 1338 3379 2048 3379 
Q 2790 3379 3168 2861 
Q 3494 2406 3494 1632 
Q 3494 909 3194 461 
Q 2854 -51 2170 -115 
L 2099 -122 
L 2035 -122 
Q 1453 -122 1043 358 
L 1005 403 
L 979 448 
L 998 0 
L 448 0 
L 448 4480 
L 998 4480 
z
M 1914 269 
L 1990 269 
Q 2029 269 2067 282 
Q 2912 384 2912 1632 
Q 2912 2355 2637 2650 
Q 2330 2976 2029 2976 
L 1984 2982 
L 1946 2982 
L 1754 2963 
Q 1626 2950 1472 2854 
Q 960 2534 960 1645 
Q 960 1088 1152 730 
Q 1402 269 1914 269 
z
" transform="scale(0.015625)"/>
       <path id="Helvetica-73" d="M 774 966 
Q 774 416 1402 288 
Q 1459 288 1523 275 
L 1638 269 
L 1690 269 
Q 1990 269 2182 429 
Q 2374 589 2374 883 
Q 2374 1056 2259 1190 
Q 2118 1350 1709 1427 
L 1638 1440 
L 1562 1459 
L 1363 1498 
L 1152 1542 
Q 883 1600 608 1811 
Q 358 2003 358 2445 
Q 358 2822 602 3066 
Q 832 3290 1216 3347 
L 1395 3373 
L 1568 3379 
Q 2182 3405 2470 3155 
Q 2758 2906 2822 2624 
L 2848 2509 
L 2861 2400 
L 2336 2400 
L 2323 2483 
L 2304 2573 
Q 2170 2982 1587 2982 
Q 1312 2982 1139 2867 
Q 934 2733 934 2470 
Q 934 2189 1152 2061 
Q 1280 1984 1632 1907 
L 1722 1888 
L 1818 1869 
L 1843 1862 
Q 2426 1715 2605 1600 
Q 2944 1389 2944 922 
L 2944 883 
Q 2944 378 2522 109 
Q 2170 -122 1632 -122 
Q 915 -122 589 186 
Q 301 454 230 883 
L 224 922 
L 224 966 
L 774 966 
z
" transform="scale(0.015625)"/>
       <path id="Helvetica-65" d="M 3270 941 
L 3219 749 
Q 3194 640 3142 550 
Q 3014 301 2726 96 
Q 2387 -154 1882 -122 
L 1568 -102 
Q 1510 -96 1356 -57 
Q 1203 -19 1101 26 
Q 506 282 333 973 
Q 269 1222 269 1613 
Q 269 2426 634 2880 
Q 1030 3379 1824 3379 
Q 2675 3379 2976 2854 
Q 3136 2573 3219 2249 
Q 3302 1926 3302 1498 
L 851 1498 
L 870 1267 
L 928 1011 
Q 986 768 1222 506 
Q 1440 269 1862 269 
Q 2195 269 2438 445 
Q 2682 621 2746 941 
L 3270 941 
z
M 2720 1894 
L 2701 2099 
Q 2701 2138 2688 2227 
Q 2675 2266 2656 2330 
Q 2592 2560 2406 2771 
Q 2221 2982 1837 2982 
Q 1434 2982 1181 2752 
Q 928 2522 864 2118 
Q 864 2054 851 2003 
L 851 1894 
L 2720 1894 
z
" transform="scale(0.015625)"/>
       <path id="Helvetica-72" d="M 2227 2982 
Q 1664 2982 1338 2694 
Q 1094 2477 1030 2112 
Q 1011 1997 1005 1843 
L 998 1670 
L 998 0 
L 448 0 
L 448 3251 
L 998 3251 
L 998 2624 
Q 1126 2963 1414 3161 
Q 1702 3360 2067 3373 
L 2227 3379 
L 2227 2982 
z
" transform="scale(0.015625)"/>
       <path id="Helvetica-76" d="M 2387 3251 
L 2976 3251 
L 1792 0 
L 1171 0 
L -19 3251 
L 570 3251 
L 1491 563 
L 2387 3251 
z
" transform="scale(0.015625)"/>
       <path id="Helvetica-64" d="M 3302 4480 
L 3302 0 
L 2752 0 
L 2784 448 
L 2733 384 
L 2688 314 
Q 2413 -122 1715 -122 
Q 973 -122 621 409 
Q 269 941 269 1632 
L 269 1760 
Q 269 1830 282 1894 
Q 282 2394 634 2912 
Q 947 3379 1702 3379 
Q 2086 3379 2310 3264 
Q 2566 3142 2752 2829 
L 2752 4480 
L 3302 4480 
z
M 1638 288 
L 1837 269 
L 1920 269 
L 2010 288 
Q 2310 352 2547 646 
Q 2784 941 2784 1645 
Q 2784 2579 2214 2893 
Q 2061 2976 1888 2976 
L 1843 2982 
L 1805 2982 
Q 1286 2982 1043 2541 
Q 851 2189 851 1632 
Q 851 448 1638 288 
z
" transform="scale(0.015625)"/>
       <path id="Helvetica-20" transform="scale(0.015625)"/>
       <path id="Helvetica-41" d="M 608 0 
L -19 0 
L 1632 4480 
L 2266 4480 
L 3930 0 
L 3296 0 
L 2874 1158 
L 1018 1158 
L 608 0 
z
M 2720 1664 
L 1946 3872 
L 1184 1664 
L 2720 1664 
z
" transform="scale(0.015625)"/>
       <path id="Helvetica-61" d="M 339 2291 
L 339 2355 
L 346 2419 
Q 346 2746 678 3078 
Q 979 3379 1696 3379 
Q 2675 3379 2906 2720 
Q 2944 2618 2950 2483 
L 2963 2285 
L 2931 781 
Q 2925 557 2985 477 
Q 3046 397 3264 397 
L 3264 0 
L 3238 0 
L 3213 -6 
L 3123 -13 
L 3014 -19 
Q 2739 -38 2614 67 
Q 2490 173 2445 448 
Q 2349 269 2221 166 
Q 2189 141 2099 83 
Q 1830 -83 1594 -102 
L 1350 -122 
Q 928 -154 646 32 
Q 410 192 320 390 
Q 262 518 243 653 
L 230 851 
Q 205 1210 499 1510 
Q 774 1798 1792 1882 
L 1939 1894 
Q 2138 1894 2298 1978 
Q 2413 2035 2413 2330 
Q 2413 2790 2042 2931 
Q 1933 2970 1843 2976 
L 1690 2982 
L 1523 2976 
Q 1478 2976 1402 2970 
Q 1389 2970 1293 2925 
Q 870 2790 870 2291 
L 339 2291 
z
M 2413 1664 
L 2387 1645 
L 2368 1632 
L 2227 1574 
L 2035 1542 
L 1997 1542 
Q 1613 1542 1139 1382 
Q 800 1267 800 870 
L 813 749 
Q 819 666 864 589 
Q 1011 269 1414 269 
Q 2074 269 2304 877 
Q 2310 902 2342 998 
Q 2355 1056 2374 1165 
L 2400 1389 
L 2413 1664 
z
" transform="scale(0.015625)"/>
       <path id="Helvetica-6f" d="M 1830 3379 
Q 2598 3379 3014 2880 
Q 3398 2413 3398 1632 
Q 3398 851 3008 384 
Q 2592 -122 1830 -122 
Q 1062 -122 653 384 
Q 269 851 269 1632 
Q 269 2426 646 2886 
Q 1056 3379 1830 3379 
z
M 851 1478 
L 870 1325 
Q 1005 269 1830 269 
Q 2330 269 2541 595 
Q 2765 947 2797 1325 
L 2810 1478 
L 2816 1632 
L 2803 1920 
Q 2790 2285 2547 2650 
Q 2330 2982 1830 2982 
Q 992 2982 864 1901 
Q 864 1824 851 1760 
L 851 1478 
z
" transform="scale(0.015625)"/>
       <path id="Helvetica-66" d="M 1914 2854 
L 1222 2854 
L 1222 0 
L 666 0 
L 666 2854 
L 77 2854 
L 77 3251 
L 666 3251 
L 666 3693 
Q 666 4147 896 4326 
Q 1152 4525 1510 4506 
L 1619 4499 
L 1914 4480 
L 1914 4083 
L 1843 4083 
L 1824 4090 
L 1696 4090 
L 1670 4096 
L 1568 4096 
L 1530 4090 
Q 1389 4064 1334 4000 
Q 1280 3936 1248 3846 
L 1222 3738 
L 1222 3251 
L 1914 3251 
L 1914 2854 
z
" transform="scale(0.015625)"/>
       <path id="Helvetica-63" d="M 3206 1158 
L 3174 954 
L 3117 736 
Q 3034 429 2707 141 
Q 2406 -122 1824 -122 
Q 672 -122 365 922 
Q 294 1152 288 1312 
L 269 1651 
Q 269 1651 269 1786 
Q 269 1875 282 1946 
L 339 2272 
Q 403 2637 762 3027 
Q 1088 3379 1786 3379 
Q 2438 3379 2752 3072 
Q 3085 2746 3155 2374 
L 3181 2234 
L 2656 2234 
L 2637 2310 
Q 2637 2342 2624 2387 
Q 2438 2982 1798 2982 
Q 1248 2982 1049 2566 
Q 851 2150 851 1651 
L 851 1542 
L 858 1440 
Q 883 1018 1113 643 
Q 1344 269 1837 269 
Q 2374 269 2605 800 
L 2656 986 
L 2682 1158 
L 3206 1158 
z
" transform="scale(0.015625)"/>
       <path id="Helvetica-75" d="M 2586 0 
L 2586 461 
Q 2426 211 2189 70 
Q 1907 -96 1683 -109 
L 1498 -122 
Q 1030 -154 787 96 
Q 576 320 499 595 
L 454 864 
L 448 1094 
L 448 3251 
L 998 3251 
L 998 1261 
Q 998 800 1107 582 
Q 1267 269 1670 269 
Q 2355 269 2528 941 
Q 2566 1082 2573 1235 
L 2586 1478 
L 2586 3251 
L 3136 3251 
L 3136 0 
L 2586 0 
z
" transform="scale(0.015625)"/>
       <path id="Helvetica-70" d="M 973 3251 
L 966 2810 
Q 1402 3379 2035 3379 
Q 2758 3379 3136 2848 
Q 3469 2374 3469 1626 
Q 3469 883 3142 416 
Q 2765 -122 2048 -122 
L 2010 -122 
Q 1318 -122 998 467 
L 998 -1184 
L 448 -1184 
L 448 3251 
L 973 3251 
z
M 1264 592 
Q 1568 269 1946 269 
Q 2451 269 2694 717 
Q 2886 1075 2886 1626 
Q 2886 2317 2617 2649 
Q 2349 2982 1914 2982 
Q 1760 2982 1600 2925 
Q 960 2694 960 1613 
Q 960 915 1264 592 
z
" transform="scale(0.015625)"/>
       <path id="Helvetica-6e" d="M 998 3251 
L 998 2797 
Q 1395 3379 2093 3379 
Q 2688 3379 2899 3046 
Q 3014 2861 3072 2701 
Q 3110 2592 3130 2323 
L 3136 2240 
L 3136 0 
L 2586 0 
L 2579 2246 
Q 2573 2400 2541 2499 
Q 2509 2598 2432 2752 
Q 2317 2982 1914 2982 
Q 1843 2982 1776 2976 
Q 1709 2970 1651 2944 
Q 1299 2861 1133 2483 
Q 998 2182 998 1773 
L 998 0 
L 448 0 
L 448 3251 
L 998 3251 
z
" transform="scale(0.015625)"/>
       <path id="Helvetica-79" d="M 570 -762 
L 755 -781 
L 845 -787 
Q 1062 -800 1190 -614 
Q 1254 -525 1344 -237 
L 1421 0 
L 38 3251 
L 698 3251 
L 1722 621 
L 2566 3251 
L 3123 3251 
L 1811 -512 
Q 1715 -768 1552 -992 
Q 1389 -1216 1018 -1203 
L 774 -1197 
Q 634 -1190 570 -1171 
L 570 -762 
z
" transform="scale(0.015625)"/>
       <path id="Helvetica-28" d="M 1766 4480 
Q 998 2963 998 1651 
Q 998 717 1402 -346 
Q 1472 -531 1613 -864 
L 1766 -1178 
L 1350 -1184 
Q 819 -243 640 320 
Q 474 838 448 1395 
L 442 1523 
L 442 1773 
L 448 1901 
Q 474 2426 643 2986 
Q 813 3546 1350 4480 
L 1766 4480 
z
" transform="scale(0.015625)"/>
       <path id="Helvetica-2c" d="M 659 698 
L 1280 698 
L 1274 -301 
L 1254 -403 
Q 1178 -800 659 -941 
L 659 -595 
Q 787 -576 870 -461 
Q 954 -378 973 -230 
L 973 0 
L 659 0 
L 659 698 
z
" transform="scale(0.015625)"/>
       <path id="Helvetica-6b" d="M 2515 3251 
L 3174 3251 
L 1920 1997 
L 3302 0 
L 2662 0 
L 1542 1651 
L 998 1107 
L 998 0 
L 448 0 
L 448 4480 
L 998 4480 
L 998 1702 
L 2515 3251 
z
" transform="scale(0.015625)"/>
       <path id="Helvetica-6d" d="M 998 3251 
L 998 2810 
L 992 2771 
Q 1158 3174 1702 3341 
L 1843 3366 
L 1978 3379 
Q 2342 3379 2541 3213 
Q 2765 3027 2829 2848 
L 2861 2758 
L 2886 2682 
L 2931 2758 
L 2982 2848 
Q 3354 3379 3994 3379 
Q 4717 3379 4941 2707 
Q 4998 2541 5005 2355 
L 5018 2099 
L 5018 0 
L 4461 0 
L 4454 2240 
Q 4454 2240 4454 2355 
Q 4448 2394 4429 2445 
Q 4397 2637 4269 2809 
Q 4141 2982 3846 2982 
Q 3418 2982 3200 2662 
Q 3008 2387 3008 1939 
L 3008 0 
L 2458 0 
L 2458 2054 
Q 2458 2982 1843 2982 
L 1805 2982 
L 1773 2976 
Q 1510 2976 1242 2688 
Q 998 2426 998 1939 
L 998 0 
L 448 0 
L 448 3251 
L 998 3251 
z
" transform="scale(0.015625)"/>
       <path id="Helvetica-b2" d="M 1120 4480 
L 1120 0 
L 531 0 
L 531 4480 
L 1120 4480 
z
" transform="scale(0.015625)"/>
       <path id="Helvetica-29" d="M 518 -1184 
Q 1280 339 1280 1651 
L 1280 1658 
Q 1280 2970 518 4480 
L 934 4480 
Q 1843 2982 1843 1651 
Q 1843 288 934 -1178 
L 518 -1184 
z
" transform="scale(0.015625)"/>
      </defs>
      <use xlink:href="#Helvetica-4f"/>
      <use xlink:href="#Helvetica-62" x="74.199982"/>
      <use xlink:href="#Helvetica-73" x="132.999969"/>
      <use xlink:href="#Helvetica-65" x="182.499954"/>
      <use xlink:href="#Helvetica-72" x="238.299942"/>
      <use xlink:href="#Helvetica-76" x="274.399933"/>
      <use xlink:href="#Helvetica-65" x="320.499924"/>
      <use xlink:href="#Helvetica-64" x="376.299911"/>
      <use xlink:href="#Helvetica-20" x="434.999908"/>
      <use xlink:href="#Helvetica-41" x="469.299896"/>
      <use xlink:href="#Helvetica-72" x="530.299881"/>
      <use xlink:href="#Helvetica-65" x="566.399872"/>
      <use xlink:href="#Helvetica-61" x="622.19986"/>
      <use xlink:href="#Helvetica-20" x="676.29985"/>
      <use xlink:href="#Helvetica-6f" x="710.599838"/>
      <use xlink:href="#Helvetica-66" x="767.899826"/>
      <use xlink:href="#Helvetica-20" x="799.099823"/>
      <use xlink:href="#Helvetica-4f" x="833.399811"/>
      <use xlink:href="#Helvetica-63" x="907.599792"/>
      <use xlink:href="#Helvetica-63" x="961.299789"/>
      <use xlink:href="#Helvetica-75" x="1014.999786"/>
      <use xlink:href="#Helvetica-70" x="1071.099777"/>
      <use xlink:href="#Helvetica-61" x="1129.599762"/>
      <use xlink:href="#Helvetica-6e" x="1183.699753"/>
      <use xlink:href="#Helvetica-63" x="1239.799744"/>
      <use xlink:href="#Helvetica-79" x="1293.499741"/>
      <use xlink:href="#Helvetica-20" x="1342.299728"/>
      <use xlink:href="#Helvetica-28" x="1376.599716"/>
      <use xlink:href="#Helvetica-31" x="1412.299713"/>
      <use xlink:href="#Helvetica-30" x="1468.899704"/>
      <use xlink:href="#Helvetica-2c" x="1525.899689"/>
      <use xlink:href="#Helvetica-30" x="1556.299683"/>
      <use xlink:href="#Helvetica-30" x="1613.299667"/>
      <use xlink:href="#Helvetica-30" x="1670.299652"/>
      <use xlink:href="#Helvetica-20" x="1727.299637"/>
      <use xlink:href="#Helvetica-6b" x="1761.599625"/>
      <use xlink:href="#Helvetica-6d" x="1812.799622"/>
      <use xlink:href="#Helvetica-b2" x="1898.199615"/>
      <use xlink:href="#Helvetica-29" x="1923.999603"/>
     </g>
    </g>
   </g>
   <g id="LineCollection_2">
    <path d="M 18.247273 450.027628 
L 18.247273 449.76474 
" clip-path="url(#paa34f3cb52)" style="fill: none; stroke: #000000; stroke-width: 1.5"/>
    <path d="M 40.792727 408.172025 
L 40.792727 406.520082 
" clip-path="url(#paa34f3cb52)" style="fill: none; stroke: #000000; stroke-width: 1.5"/>
   </g>
   <g id="patch_9">
    <path d="M 7.2 450.225 
L 7.2 276.975 
" style="fill: none; stroke: #000000; stroke-width: 0.8; stroke-linejoin: miter; stroke-linecap: square"/>
   </g>
  </g>
  <g id="axes_3">
   <g id="patch_10">
    <path d="M 7.2 640.8 
L 51.84 640.8 
L 51.84 467.55 
L 7.2 467.55 
z
" style="fill: #ffffff"/>
   </g>
   <g id="patch_11">
    <path d="M 9.229091 640.8 
L 27.265455 640.8 
L 27.265455 539.404505 
L 9.229091 539.404505 
z
" clip-path="url(#pfbb3d41635)" style="fill: #32cdb3"/>
   </g>
   <g id="patch_12">
    <path d="M 31.774545 640.8 
L 49.810909 640.8 
L 49.810909 477.650426 
L 31.774545 477.650426 
z
" clip-path="url(#pfbb3d41635)" style="fill: #32cdb3"/>
   </g>
   <g id="matplotlib.axis_5"/>
   <g id="matplotlib.axis_6">
    <g id="ytick_15">
     <g id="line2d_15">
      <g>
       <use xlink:href="#ma36be30270" x="7.2" y="640.8" style="stroke: #000000; stroke-width: 0.8"/>
      </g>
     </g>
     <g id="text_16">
      <!-- 0 -->
      <g transform="translate(-5.5 644.3) scale(0.1 -0.1)">
       <use xlink:href="#Helvetica-30"/>
      </g>
     </g>
    </g>
    <g id="ytick_16">
     <g id="line2d_16">
      <g>
       <use xlink:href="#ma36be30270" x="7.2" y="614.431455" style="stroke: #000000; stroke-width: 0.8"/>
      </g>
     </g>
     <g id="text_17">
      <!-- 2 -->
      <g transform="translate(-5.520313 617.931455) scale(0.1 -0.1)">
       <use xlink:href="#Helvetica-32"/>
      </g>
     </g>
    </g>
    <g id="ytick_17">
     <g id="line2d_17">
      <g>
       <use xlink:href="#ma36be30270" x="7.2" y="588.062909" style="stroke: #000000; stroke-width: 0.8"/>
      </g>
     </g>
     <g id="text_18">
      <!-- 4 -->
      <g transform="translate(-5.540625 591.562909) scale(0.1 -0.1)">
       <use xlink:href="#Helvetica-34"/>
      </g>
     </g>
    </g>
    <g id="ytick_18">
     <g id="line2d_18">
      <g>
       <use xlink:href="#ma36be30270" x="7.2" y="561.694364" style="stroke: #000000; stroke-width: 0.8"/>
      </g>
     </g>
     <g id="text_19">
      <!-- 6 -->
      <g transform="translate(-5.490625 565.194364) scale(0.1 -0.1)">
       <use xlink:href="#Helvetica-36"/>
      </g>
     </g>
    </g>
    <g id="ytick_19">
     <g id="line2d_19">
      <g>
       <use xlink:href="#ma36be30270" x="7.2" y="535.325818" style="stroke: #000000; stroke-width: 0.8"/>
      </g>
     </g>
     <g id="text_20">
      <!-- 8 -->
      <g transform="translate(-5.5 538.825818) scale(0.1 -0.1)">
       <use xlink:href="#Helvetica-38"/>
      </g>
     </g>
    </g>
    <g id="ytick_20">
     <g id="line2d_20">
      <g>
       <use xlink:href="#ma36be30270" x="7.2" y="508.957273" style="stroke: #000000; stroke-width: 0.8"/>
      </g>
     </g>
     <g id="text_21">
      <!-- 10 -->
      <g transform="translate(-11.159375 512.457273) scale(0.1 -0.1)">
       <use xlink:href="#Helvetica-31"/>
       <use xlink:href="#Helvetica-30" x="56.599991"/>
      </g>
     </g>
    </g>
    <g id="ytick_21">
     <g id="line2d_21">
      <g>
       <use xlink:href="#ma36be30270" x="7.2" y="482.588727" style="stroke: #000000; stroke-width: 0.8"/>
      </g>
     </g>
     <g id="text_22">
      <!-- 12 -->
      <g transform="translate(-11.179688 486.088727) scale(0.1 -0.1)">
       <use xlink:href="#Helvetica-31"/>
       <use xlink:href="#Helvetica-32" x="56.599991"/>
      </g>
     </g>
    </g>
   </g>
   <g id="LineCollection_3">
    <path d="M 18.247273 540.808094 
L 18.247273 538.000916 
" clip-path="url(#pfbb3d41635)" style="fill: none; stroke: #000000; stroke-width: 1.5"/>
    <path d="M 40.792727 479.500852 
L 40.792727 475.8 
" clip-path="url(#pfbb3d41635)" style="fill: none; stroke: #000000; stroke-width: 1.5"/>
   </g>
   <g id="patch_13">
    <path d="M 7.2 640.8 
L 7.2 467.55 
" style="fill: none; stroke: #000000; stroke-width: 0.8; stroke-linejoin: miter; stroke-linecap: square"/>
   </g>
  </g>
 </g>
 <defs>
  <clipPath id="p1d4a7db81d">
   <rect x="7.2" y="86.4" width="44.64" height="173.25"/>
  </clipPath>
  <clipPath id="paa34f3cb52">
   <rect x="7.2" y="276.975" width="44.64" height="173.25"/>
  </clipPath>
  <clipPath id="pfbb3d41635">
   <rect x="7.2" y="467.55" width="44.64" height="173.25"/>
  </clipPath>
 </defs>
</svg>
